<mxfile host="app.diagrams.net" agent="Mozilla/5.0 (Windows NT 10.0; Win64; x64) AppleWebKit/537.36 (KHTML, like Gecko) Chrome/141.0.0.0 Safari/537.36" version="28.2.5">
  <diagram name="Page-1" id="Lz69OAqfOOrWqHBVzTk7">
    <mxGraphModel grid="1" page="1" gridSize="10" guides="1" tooltips="1" connect="1" arrows="1" fold="1" pageScale="1" pageWidth="1000" pageHeight="1169" math="0" shadow="0">
      <root>
        <mxCell id="0" />
        <mxCell id="1" parent="0" />
        <mxCell id="05XKeAqkWEqFGWeybGat-1" value="Start" style="rounded=1;whiteSpace=wrap;arcSize=50;strokeWidth=2;" vertex="1" parent="1">
          <mxGeometry x="459" y="220" width="60" height="39" as="geometry" />
        </mxCell>
        <mxCell id="05XKeAqkWEqFGWeybGat-2" value="Display &#39;Input Days : &#39;" style="whiteSpace=wrap;strokeWidth=2;" vertex="1" parent="1">
          <mxGeometry x="384" y="309" width="211" height="54" as="geometry" />
        </mxCell>
        <mxCell id="05XKeAqkWEqFGWeybGat-3" value="Input valid integer?" style="rhombus;strokeWidth=2;whiteSpace=wrap;" vertex="1" parent="1">
          <mxGeometry x="393" y="413" width="193" height="193" as="geometry" />
        </mxCell>
        <mxCell id="05XKeAqkWEqFGWeybGat-4" value="Display &#39;Error&#39;" style="whiteSpace=wrap;strokeWidth=2;" vertex="1" parent="1">
          <mxGeometry x="290" y="806" width="157" height="54" as="geometry" />
        </mxCell>
        <mxCell id="05XKeAqkWEqFGWeybGat-5" value="End" style="rounded=1;whiteSpace=wrap;arcSize=50;strokeWidth=2;" vertex="1" parent="1">
          <mxGeometry x="463" y="910" width="51" height="39" as="geometry" />
        </mxCell>
        <mxCell id="05XKeAqkWEqFGWeybGat-6" value="Calculate seconds = days * 86400" style="whiteSpace=wrap;strokeWidth=2;" vertex="1" parent="1">
          <mxGeometry x="480" y="678" width="260" height="78" as="geometry" />
        </mxCell>
        <mxCell id="05XKeAqkWEqFGWeybGat-7" value="Display &#39;days = seconds&#39;" style="whiteSpace=wrap;strokeWidth=2;" vertex="1" parent="1">
          <mxGeometry x="497" y="806" width="226" height="54" as="geometry" />
        </mxCell>
        <mxCell id="05XKeAqkWEqFGWeybGat-8" value="" style="curved=1;startArrow=none;endArrow=block;exitX=0.5;exitY=1;entryX=0.5;entryY=0;rounded=0;" edge="1" parent="1" source="05XKeAqkWEqFGWeybGat-1" target="05XKeAqkWEqFGWeybGat-2">
          <mxGeometry relative="1" as="geometry">
            <Array as="points" />
          </mxGeometry>
        </mxCell>
        <mxCell id="05XKeAqkWEqFGWeybGat-9" value="" style="curved=1;startArrow=none;endArrow=block;exitX=0.5;exitY=1;entryX=0.5;entryY=0;rounded=0;" edge="1" parent="1" source="05XKeAqkWEqFGWeybGat-2" target="05XKeAqkWEqFGWeybGat-3">
          <mxGeometry relative="1" as="geometry">
            <Array as="points" />
          </mxGeometry>
        </mxCell>
        <mxCell id="05XKeAqkWEqFGWeybGat-10" value="No" style="curved=1;startArrow=none;endArrow=block;exitX=0.04;exitY=1;entryX=0.5;entryY=0;rounded=0;" edge="1" parent="1" source="05XKeAqkWEqFGWeybGat-3" target="05XKeAqkWEqFGWeybGat-4">
          <mxGeometry relative="1" as="geometry">
            <Array as="points">
              <mxPoint x="368" y="642" />
            </Array>
          </mxGeometry>
        </mxCell>
        <mxCell id="05XKeAqkWEqFGWeybGat-11" value="" style="curved=1;startArrow=none;endArrow=block;exitX=0.5;exitY=1;entryX=0.01;entryY=0.26;rounded=0;" edge="1" parent="1" source="05XKeAqkWEqFGWeybGat-4" target="05XKeAqkWEqFGWeybGat-5">
          <mxGeometry relative="1" as="geometry">
            <Array as="points">
              <mxPoint x="368" y="885" />
            </Array>
          </mxGeometry>
        </mxCell>
        <mxCell id="05XKeAqkWEqFGWeybGat-12" value="Yes" style="curved=1;startArrow=none;endArrow=block;exitX=0.95;exitY=1;entryX=0.5;entryY=0;rounded=0;" edge="1" parent="1" source="05XKeAqkWEqFGWeybGat-3" target="05XKeAqkWEqFGWeybGat-6">
          <mxGeometry relative="1" as="geometry">
            <Array as="points">
              <mxPoint x="610" y="642" />
            </Array>
          </mxGeometry>
        </mxCell>
        <mxCell id="05XKeAqkWEqFGWeybGat-13" value="" style="curved=1;startArrow=none;endArrow=block;exitX=0.5;exitY=1;entryX=0.5;entryY=0;rounded=0;" edge="1" parent="1" source="05XKeAqkWEqFGWeybGat-6" target="05XKeAqkWEqFGWeybGat-7">
          <mxGeometry relative="1" as="geometry">
            <Array as="points" />
          </mxGeometry>
        </mxCell>
        <mxCell id="05XKeAqkWEqFGWeybGat-14" value="" style="curved=1;startArrow=none;endArrow=block;exitX=0.5;exitY=1;entryX=1.01;entryY=0.26;rounded=0;" edge="1" parent="1" source="05XKeAqkWEqFGWeybGat-7" target="05XKeAqkWEqFGWeybGat-5">
          <mxGeometry relative="1" as="geometry">
            <Array as="points">
              <mxPoint x="610" y="885" />
            </Array>
          </mxGeometry>
        </mxCell>
      </root>
    </mxGraphModel>
  </diagram>
</mxfile>
